<svg id="Layer_1" data-name="Layer 1" xmlns="http://www.w3.org/2000/svg" viewBox="0 0 904.32 887.04"><defs><style>.cls-1{fill:#8000a7;}.cls-2{fill:#fff;}</style></defs><circle class="cls-1" cx="438.3" cy="451.38" r="406.08"/><path class="cls-2" d="M659.14,318.75c-22.32-30.88-60-51.4-98.23-53.56-57.64-3.25-81.51,14-161.49,86.29-21.26,19.21-47.09,42.13-77.86,69.8v134.4H549.05V421.28l-85.77-77.12c29.57-28.06,62-41.71,95.43-39.84,21,1.19,50,11.63,68.67,37.4,18.43,25.5,21.45,60.71,11.11,102.42C612,551.05,482.13,621.63,435.3,644.64c-46.82-23-175.5-94.74-203.19-200.5-10.88-41.58-7.32-76.92,11.12-102.42,18.62-25.77,47.68-36.21,68.67-37.4,26.39-1.47,52.13,6.76,76.36,24.06l28.55-27.78c-39.91-30.74-78.3-37-107.12-35.41-38.26,2.16-75.91,22.68-98.23,53.56-17.84,24.69-35.31,68.25-17.2,135.57,15.9,59.09,61.88,122.36,136.66,174.41C380.66,663.35,426.2,684,435.3,687.94c9.11-4,54.65-24.59,104.39-59.21,74.78-52.05,120.76-115.32,136.65-174.41C694.46,387,677,343.44,659.14,318.75Zm-149.28,120v77.73H360.75V438.75l72.56-65.23,2-1.72,2,1.72Z"/><rect class="cls-2" x="408.6" y="441.16" width="24.05" height="24.05"/><rect class="cls-2" x="439.39" y="441.16" width="24.05" height="24.05"/><rect class="cls-2" x="408.6" y="471.67" width="24.05" height="24.05"/><rect class="cls-2" x="439.39" y="471.67" width="24.05" height="24.05"/></svg>