<svg id="Layer_1" data-name="Layer 1" xmlns="http://www.w3.org/2000/svg" viewBox="0 0 959.04 944.64"><defs><style>.cls-1{fill:#8000a7;}.cls-2{fill:none;stroke:#fff;stroke-miterlimit:10;stroke-width:11px;}.cls-3{fill:#fff;}</style></defs><circle class="cls-1" cx="461.93" cy="458.35" r="406.08"/><path class="cls-2" d="M461.93,823.43A365.08,365.08,0,0,1,203.78,200.2a365.08,365.08,0,1,1,516.3,516.3A362.65,362.65,0,0,1,461.93,823.43Z"/><path class="cls-3" d="M144.21,500.44V433.38h14.73v16.84l-6.45,10q0-12.76,6.59-20.48t17.4-7.72q10.52,0,16.9,7.3t6.38,19.63l-9.4,2.53q0-9.68,3.09-16.2a22.54,22.54,0,0,1,8.56-9.89A23.24,23.24,0,0,1,214.49,432q11.5,0,18.17,7.37t6.66,20.27v40.82h-16v-40q0-6.18-3.16-10a11.63,11.63,0,0,0-17.18,0q-3.23,3.78-3.23,10v40h-16v-40q0-6.18-3.16-10a11.63,11.63,0,0,0-17.18,0q-3.23,3.78-3.23,10v40Z"/><path class="cls-3" d="M286.45,501.84a35.73,35.73,0,0,1-18.31-4.7,34.06,34.06,0,0,1-12.62-12.63,34.65,34.65,0,0,1-4.56-17.6,34.27,34.27,0,0,1,4.63-17.61A34.82,34.82,0,0,1,286.17,432a35.9,35.9,0,0,1,17.68,4.28,32.46,32.46,0,0,1,12.27,11.85,33.07,33.07,0,0,1,4.56,17.4v4.35h-60V459.47h49L305.11,465v-2.39a17.07,17.07,0,0,0-2.53-9.33,18,18,0,0,0-6.8-6.31,19.91,19.91,0,0,0-9.61-2.31,18.39,18.39,0,0,0-9.47,2.59,20.83,20.83,0,0,0-7.15,6.94,18,18,0,0,0-2.74,9.82V469a19.22,19.22,0,0,0,10,17.19,19.92,19.92,0,0,0,9.68,2.45A23.67,23.67,0,0,0,297,486.34a19.23,19.23,0,0,0,7.79-7.23h15.43A30.86,30.86,0,0,1,313,491a35.52,35.52,0,0,1-11.78,8A37.59,37.59,0,0,1,286.45,501.84Z"/><path class="cls-3" d="M332,433.38h16v40.54q0,6.18,3.37,9.82a11.76,11.76,0,0,0,9.12,3.65,11.58,11.58,0,0,0,9-3.65q3.38-3.64,3.37-9.82V433.38h16v39.56q0,13.6-7.64,21.25t-20.69,7.65q-13,0-20.76-7.65T332,472.94Z"/><path class="cls-3" d="M403.16,500.44V409.26h16v64.8l-9.4,16.84a55.14,55.14,0,0,1,.56-8.35,23.37,23.37,0,0,1,1.9-6.38,28.23,28.23,0,0,1,3.43-5.47l28.06-37.32h17.67L434.3,468.73H421.39a15.94,15.94,0,0,1,6.18-4.63,18.4,18.4,0,0,1,7.15-1.54q13.47,0,20.83,7.15t7.37,20.06v10.67h-16V489.77c0-4.48-1.25-8-3.72-10.45s-5.87-3.71-10.17-3.71-7.58,1.24-10.1,3.71-3.79,5.92-3.79,10.31v10.81Z"/><path class="cls-3" d="M474,433.38h16v40.54q0,6.18,3.37,9.82a11.76,11.76,0,0,0,9.11,3.65,11.6,11.6,0,0,0,9-3.65q3.38-3.64,3.37-9.82V433.38h16v39.56q0,13.6-7.64,21.25t-20.7,7.65q-13,0-20.76-7.65T474,472.94Z"/><path class="cls-3" d="M545.12,500.44V409.26h16v80.23L558,486.27h13.89a24.52,24.52,0,0,0,11.64-2.67,19.53,19.53,0,0,0,7.86-7.36,20.8,20.8,0,0,0,2.8-10.87,20.46,20.46,0,0,0-2.45-10.31,16.59,16.59,0,0,0-6.66-6.53,19.74,19.74,0,0,0-9.4-2.24,21.12,21.12,0,0,0-9.82,2.31,28.3,28.3,0,0,0-8.84,7.79l-7-4.07q4.62-10.1,11.78-15.22A28,28,0,0,1,578.5,432a30.64,30.64,0,0,1,27.22,15.92,37.31,37.31,0,0,1-.63,35.56A33.51,33.51,0,0,1,591.62,496a43,43,0,0,1-20.13,4.49Z"/><path class="cls-3" d="M629.7,424.13a9.43,9.43,0,0,1-6.87-2.6,9.39,9.39,0,0,1,0-13.12,10.72,10.72,0,0,1,13.81,0,9.58,9.58,0,0,1,0,13.12A9.38,9.38,0,0,1,629.7,424.13Zm-8,9.25h16v67.06h-16Z"/><path class="cls-3" d="M652.28,500.44V409.26h16v64.8l-9.4,16.84a53.87,53.87,0,0,1,.56-8.35,23,23,0,0,1,1.89-6.38,28.78,28.78,0,0,1,3.44-5.47l28.05-37.32H710.5l-27.07,35.35H670.52a15.91,15.91,0,0,1,6.17-4.63,18.44,18.44,0,0,1,7.16-1.54q13.46,0,20.83,7.15T712,489.77v10.67h-16V489.77q0-6.72-3.72-10.45t-10.17-3.71q-6.31,0-10.1,3.71t-3.78,10.31v10.81Z"/><path class="cls-3" d="M723.12,433.38h16v40.54q0,6.18,3.37,9.82a11.78,11.78,0,0,0,9.12,3.65,11.62,11.62,0,0,0,9-3.65q3.36-3.64,3.36-9.82V433.38h16v39.56q0,13.6-7.64,21.25t-20.69,7.65q-13.05,0-20.76-7.65t-7.72-21.25Z"/></svg>