<svg id="Layer_1" data-name="Layer 1" xmlns="http://www.w3.org/2000/svg" viewBox="0 0 1892.17 380.16"><defs><style>.cls-1{fill:#8000a7;}.cls-2{fill:#61cee3;}</style></defs><path class="cls-1" d="M424.64,76.43C407.5,52.71,378.58,37,349.19,35.29c-44.27-2.5-62.61,10.78-124,66.28-16.33,14.76-36.17,32.36-59.81,53.61V258.41H340.08V155.18L274.2,96c22.71-21.55,47.61-32,73.3-30.6,16.12.91,38.44,8.93,52.74,28.72,14.16,19.59,16.48,46.63,8.54,78.67-20.35,82.12-120.1,136.33-156.07,154-36-17.67-134.8-72.76-156.07-154-8.36-31.93-5.62-59.08,8.54-78.67,14.31-19.79,36.63-27.81,52.75-28.72,20.26-1.13,40,5.19,58.64,18.48L238.5,62.49C207.85,38.88,178.36,34,156.23,35.29,126.84,37,97.93,52.71,80.78,76.43c-13.7,19-27.12,52.42-13.21,104.13,12.21,45.39,47.52,94,105,134A503.66,503.66,0,0,0,252.71,360a504,504,0,0,0,80.18-45.48c57.44-40,92.75-88.57,105-134C451.76,128.85,438.35,95.4,424.64,76.43ZM310,168.6v59.71H195.45V168.6l55.73-50.1,1.53-1.32,1.54,1.32Z"/><rect class="cls-2" x="232.2" y="170.45" width="18.47" height="18.47"/><rect class="cls-2" x="255.85" y="170.45" width="18.47" height="18.47"/><rect class="cls-2" x="232.2" y="193.88" width="18.47" height="18.47"/><rect class="cls-2" x="255.85" y="193.88" width="18.47" height="18.47"/><path class="cls-1" d="M505.24,273.58V135.64h30.3v34.63l-13.27,20.49q0-26.26,13.56-42.14t35.79-15.87q21.64,0,34.77,15t13.13,40.4l-19.33,5.2q0-19.92,6.35-33.34t17.6-20.34a48,48,0,0,1,25.68-6.93q23.67,0,37.38,15.15t13.71,41.7v84H668V191.34q0-12.71-6.5-20.49t-17.75-7.8q-11,0-17.6,7.8t-6.64,20.49v82.24h-32.9V191.34q0-12.71-6.49-20.49t-17.75-7.8q-11,0-17.6,7.8t-6.64,20.49v82.24Z"/><path class="cls-1" d="M797.87,276.47q-21.07,0-37.66-9.67a70,70,0,0,1-26-26,71.34,71.34,0,0,1-9.37-36.22,70.5,70.5,0,0,1,9.52-36.22,71.59,71.59,0,0,1,62.91-35.64q20.49,0,36.36,8.8a67,67,0,0,1,25.26,24.39q9.38,15.59,9.38,35.78v8.95H744.77V189.32H845.49l-9.24,11.25v-4.91a35.21,35.21,0,0,0-5.19-19.19,37.15,37.15,0,0,0-14-13,40.83,40.83,0,0,0-19.77-4.77,37.93,37.93,0,0,0-19.48,5.34,42.92,42.92,0,0,0-14.72,14.29,37.15,37.15,0,0,0-5.62,20.2v10.39A39.69,39.69,0,0,0,763.09,230,39.17,39.17,0,0,0,778,244.29a40.78,40.78,0,0,0,19.91,5.05,48.6,48.6,0,0,0,21.79-4.76,39.35,39.35,0,0,0,16-14.86h31.75a63.37,63.37,0,0,1-14.86,24.38,73.06,73.06,0,0,1-24.24,16.45A77.33,77.33,0,0,1,797.87,276.47Z"/><path class="cls-1" d="M891.66,135.64h32.9V219q0,12.71,6.93,20.2t18.75,7.51q11.55,0,18.47-7.51t6.93-20.2v-83.4h32.9V217q0,28-15.73,43.72t-42.57,15.73q-26.84,0-42.71-15.73T891.66,217Z"/><path class="cls-1" d="M1038,273.58V86h32.9V219.33L1051.54,254a112.07,112.07,0,0,1,1.15-17.17,47.62,47.62,0,0,1,3.9-13.13,58.66,58.66,0,0,1,7.07-11.26l57.72-76.76h36.36L1102,208.36h-26.55a32.57,32.57,0,0,1,12.7-9.52,37.55,37.55,0,0,1,14.72-3.18q27.71,0,42.85,14.72t15.15,41.27v21.93H1128V251.65q0-13.85-7.64-21.5t-20.93-7.65q-13,0-20.78,7.65t-7.79,21.21v22.22Z"/><path class="cls-1" d="M1183.71,135.64h32.9V219q0,12.71,6.93,20.2t18.76,7.51q11.54,0,18.47-7.51t6.92-20.2v-83.4h32.9V217q0,28-15.73,43.72t-42.56,15.73q-26.85,0-42.71-15.73T1183.71,217Z"/><path class="cls-1" d="M1330,273.58V86h32.9V251.07l-6.35-6.63h28.57A50.52,50.52,0,0,0,1409.1,239a40.19,40.19,0,0,0,16.16-15.15,42.75,42.75,0,0,0,5.77-22.36q0-12.41-5-21.22a34.07,34.07,0,0,0-13.71-13.41,40.41,40.41,0,0,0-19.33-4.62,43.43,43.43,0,0,0-20.2,4.76q-9.24,4.76-18.18,16l-14.43-8.37q9.52-20.78,24.24-31.31t34.34-10.54a63,63,0,0,1,56,32.76q8.65,15.44,8.65,35.35,0,21.36-9.95,37.8a68.7,68.7,0,0,1-27.71,25.69q-17.75,9.24-41.41,9.23Z"/><path class="cls-1" d="M1504,116.59q-8.65,0-14.14-5.34a18,18,0,0,1-5.48-13.42q0-8.37,5.48-13.56t14.14-5.2q8.94,0,14.29,5.2t5.34,13.56a18.19,18.19,0,0,1-5.34,13.42Q1513,116.59,1504,116.59Zm-16.45,19h32.9V273.58h-32.9Z"/><path class="cls-1" d="M1550.5,273.58V86h32.9V219.33L1564.07,254a112.07,112.07,0,0,1,1.15-17.17,47.62,47.62,0,0,1,3.9-13.13,58.66,58.66,0,0,1,7.07-11.26l57.72-76.76h36.36l-55.7,72.72H1588a32.57,32.57,0,0,1,12.7-9.52,37.51,37.51,0,0,1,14.72-3.18q27.7,0,42.85,14.72t15.15,41.27v21.93h-32.9V251.65q0-13.85-7.64-21.5T1612,222.5q-13,0-20.78,7.65t-7.79,21.21v22.22Z"/><path class="cls-1" d="M1696.24,135.64h32.9V219q0,12.71,6.93,20.2t18.76,7.51q11.54,0,18.47-7.51t6.92-20.2v-83.4h32.9V217q0,28-15.73,43.72t-42.56,15.73q-26.85,0-42.71-15.73T1696.24,217Z"/></svg>