<svg id="Layer_1" data-name="Layer 1" xmlns="http://www.w3.org/2000/svg" viewBox="0 0 978.55 861.84"><defs><style>.cls-1{fill:#8000a7;}.cls-2{fill:#61cee3;}</style></defs><path class="cls-1" d="M815.55,226.67c-33-45.62-88.57-75.93-145.09-79.12-85.14-4.8-120.4,20.72-238.53,127.45-31.41,28.38-69.55,62.23-115,103.1V576.6h336V378.1L526.25,264.19c43.68-41.44,91.57-61.6,141-58.84,31,1.75,73.92,17.18,101.43,55.23,27.23,37.67,31.68,89.67,16.42,151.28C745.91,569.78,554.09,674,484.93,708c-69.16-34-259.21-139.93-300.11-296.14C168.74,350.45,174,298.25,201.24,260.58c27.5-38,70.42-53.48,101.42-55.23,39-2.18,77,10,112.78,35.54l42.17-41c-58.94-45.4-115.65-54.7-158.2-52.3-56.53,3.19-112.12,33.5-145.09,79.12C128,263.13,102.16,327.46,128.91,426.9c23.48,87.27,91.39,180.72,201.85,257.61,73.47,51.13,140.73,81.57,154.17,87.45,13.45-5.88,80.71-36.32,154.18-87.45C749.57,607.62,817.47,514.17,841,426.9,867.7,327.46,841.9,263.13,815.55,226.67ZM595,403.9V518.71H374.82V403.9L482,307.55l2.95-2.54,2.95,2.54Z"/><rect class="cls-2" x="445.48" y="407.46" width="35.52" height="35.53"/><rect class="cls-2" x="490.97" y="407.46" width="35.53" height="35.53"/><rect class="cls-2" x="445.48" y="452.52" width="35.52" height="35.53"/><rect class="cls-2" x="490.97" y="452.52" width="35.53" height="35.53"/></svg>